<mxfile host="app.diagrams.net" modified="2024-06-12T14:22:01.949Z" agent="Mozilla/5.0 (X11; Linux x86_64) AppleWebKit/537.36 (KHTML, like Gecko) Chrome/125.0.0.0 Safari/537.36" etag="QW2XcpYIKJHvrny110fY" version="24.4.13" type="device">
  <diagram name="Page-1" id="cctVEmsgRUgW7UhHONzz">
    <mxGraphModel dx="1939" dy="1455" grid="1" gridSize="10" guides="1" tooltips="1" connect="1" arrows="1" fold="1" page="1" pageScale="1" pageWidth="850" pageHeight="1100" math="0" shadow="0">
      <root>
        <mxCell id="0" />
        <mxCell id="1" parent="0" />
        <mxCell id="SzKWlTnyCkTZywt5P0EU-3" style="edgeStyle=orthogonalEdgeStyle;rounded=0;orthogonalLoop=1;jettySize=auto;html=1;entryX=0.25;entryY=1;entryDx=0;entryDy=0;" edge="1" parent="1" source="SzKWlTnyCkTZywt5P0EU-1" target="SzKWlTnyCkTZywt5P0EU-2">
          <mxGeometry relative="1" as="geometry" />
        </mxCell>
        <mxCell id="SzKWlTnyCkTZywt5P0EU-1" value="GPS Receiver" style="whiteSpace=wrap;html=1;aspect=fixed;" vertex="1" parent="1">
          <mxGeometry x="40" y="240" width="100" height="100" as="geometry" />
        </mxCell>
        <mxCell id="SzKWlTnyCkTZywt5P0EU-2" value="Kafka topic" style="rounded=0;whiteSpace=wrap;html=1;" vertex="1" parent="1">
          <mxGeometry x="160" y="160" width="190" height="30" as="geometry" />
        </mxCell>
        <mxCell id="SzKWlTnyCkTZywt5P0EU-5" style="edgeStyle=orthogonalEdgeStyle;rounded=0;orthogonalLoop=1;jettySize=auto;html=1;entryX=0.75;entryY=1;entryDx=0;entryDy=0;" edge="1" parent="1" source="SzKWlTnyCkTZywt5P0EU-4" target="SzKWlTnyCkTZywt5P0EU-2">
          <mxGeometry relative="1" as="geometry" />
        </mxCell>
        <mxCell id="SzKWlTnyCkTZywt5P0EU-7" style="edgeStyle=orthogonalEdgeStyle;rounded=0;orthogonalLoop=1;jettySize=auto;html=1;entryX=0.5;entryY=0;entryDx=0;entryDy=0;" edge="1" parent="1" source="SzKWlTnyCkTZywt5P0EU-4" target="SzKWlTnyCkTZywt5P0EU-6">
          <mxGeometry relative="1" as="geometry" />
        </mxCell>
        <mxCell id="SzKWlTnyCkTZywt5P0EU-4" value="Distance traveled calculator" style="whiteSpace=wrap;html=1;aspect=fixed;" vertex="1" parent="1">
          <mxGeometry x="375" y="240" width="105" height="105" as="geometry" />
        </mxCell>
        <mxCell id="SzKWlTnyCkTZywt5P0EU-6" value="INVOICER" style="whiteSpace=wrap;html=1;aspect=fixed;" vertex="1" parent="1">
          <mxGeometry x="375" y="440" width="105" height="105" as="geometry" />
        </mxCell>
        <mxCell id="SzKWlTnyCkTZywt5P0EU-11" style="edgeStyle=orthogonalEdgeStyle;rounded=0;orthogonalLoop=1;jettySize=auto;html=1;entryX=0;entryY=0.75;entryDx=0;entryDy=0;" edge="1" parent="1" source="SzKWlTnyCkTZywt5P0EU-8" target="SzKWlTnyCkTZywt5P0EU-6">
          <mxGeometry relative="1" as="geometry" />
        </mxCell>
        <mxCell id="SzKWlTnyCkTZywt5P0EU-8" value="Invoices DB" style="shape=cylinder3;whiteSpace=wrap;html=1;boundedLbl=1;backgroundOutline=1;size=15;" vertex="1" parent="1">
          <mxGeometry x="225" y="400" width="85" height="80" as="geometry" />
        </mxCell>
        <mxCell id="SzKWlTnyCkTZywt5P0EU-10" style="edgeStyle=orthogonalEdgeStyle;rounded=0;orthogonalLoop=1;jettySize=auto;html=1;exitX=0;exitY=0.5;exitDx=0;exitDy=0;entryX=1;entryY=0;entryDx=0;entryDy=27.5;entryPerimeter=0;" edge="1" parent="1" source="SzKWlTnyCkTZywt5P0EU-6" target="SzKWlTnyCkTZywt5P0EU-8">
          <mxGeometry relative="1" as="geometry">
            <Array as="points">
              <mxPoint x="350" y="493" />
              <mxPoint x="350" y="428" />
            </Array>
          </mxGeometry>
        </mxCell>
        <mxCell id="SzKWlTnyCkTZywt5P0EU-12" value="Invoice calculator" style="whiteSpace=wrap;html=1;aspect=fixed;" vertex="1" parent="1">
          <mxGeometry x="540" y="440" width="110" height="110" as="geometry" />
        </mxCell>
        <mxCell id="SzKWlTnyCkTZywt5P0EU-14" value="" style="shape=flexArrow;endArrow=classic;startArrow=classic;html=1;rounded=0;entryX=0;entryY=0.5;entryDx=0;entryDy=0;" edge="1" parent="1" source="SzKWlTnyCkTZywt5P0EU-6" target="SzKWlTnyCkTZywt5P0EU-12">
          <mxGeometry width="100" height="100" relative="1" as="geometry">
            <mxPoint x="370" y="790" as="sourcePoint" />
            <mxPoint x="470" y="690" as="targetPoint" />
          </mxGeometry>
        </mxCell>
        <mxCell id="SzKWlTnyCkTZywt5P0EU-15" value="GATEWAY" style="rounded=0;whiteSpace=wrap;html=1;" vertex="1" parent="1">
          <mxGeometry x="290" y="750" width="420" height="60" as="geometry" />
        </mxCell>
        <mxCell id="SzKWlTnyCkTZywt5P0EU-17" value="" style="shape=flexArrow;endArrow=classic;startArrow=classic;html=1;rounded=0;exitX=0.271;exitY=0.013;exitDx=0;exitDy=0;exitPerimeter=0;" edge="1" parent="1" source="SzKWlTnyCkTZywt5P0EU-15" target="SzKWlTnyCkTZywt5P0EU-6">
          <mxGeometry width="100" height="100" relative="1" as="geometry">
            <mxPoint x="370" y="790" as="sourcePoint" />
            <mxPoint x="470" y="690" as="targetPoint" />
          </mxGeometry>
        </mxCell>
        <mxCell id="SzKWlTnyCkTZywt5P0EU-18" value="" style="shape=flexArrow;endArrow=classic;startArrow=classic;html=1;rounded=0;entryX=0.5;entryY=1;entryDx=0;entryDy=0;exitX=0.75;exitY=0;exitDx=0;exitDy=0;" edge="1" parent="1" source="SzKWlTnyCkTZywt5P0EU-15" target="SzKWlTnyCkTZywt5P0EU-12">
          <mxGeometry width="100" height="100" relative="1" as="geometry">
            <mxPoint x="370" y="790" as="sourcePoint" />
            <mxPoint x="470" y="690" as="targetPoint" />
          </mxGeometry>
        </mxCell>
        <mxCell id="SzKWlTnyCkTZywt5P0EU-20" value="" style="shape=flexArrow;endArrow=classic;html=1;rounded=0;entryX=0.5;entryY=1;entryDx=0;entryDy=0;" edge="1" parent="1" target="SzKWlTnyCkTZywt5P0EU-15">
          <mxGeometry width="50" height="50" relative="1" as="geometry">
            <mxPoint x="500" y="940" as="sourcePoint" />
            <mxPoint x="450" y="710" as="targetPoint" />
          </mxGeometry>
        </mxCell>
        <mxCell id="SzKWlTnyCkTZywt5P0EU-21" value="User Requests" style="edgeLabel;html=1;align=center;verticalAlign=middle;resizable=0;points=[];" vertex="1" connectable="0" parent="SzKWlTnyCkTZywt5P0EU-20">
          <mxGeometry x="0.0191" y="-1" relative="1" as="geometry">
            <mxPoint as="offset" />
          </mxGeometry>
        </mxCell>
        <mxCell id="SzKWlTnyCkTZywt5P0EU-22" value="" style="shape=flexArrow;endArrow=classic;html=1;rounded=0;entryX=0.5;entryY=1;entryDx=0;entryDy=0;" edge="1" parent="1" target="SzKWlTnyCkTZywt5P0EU-1">
          <mxGeometry width="50" height="50" relative="1" as="geometry">
            <mxPoint x="40" y="630" as="sourcePoint" />
            <mxPoint x="450" y="710" as="targetPoint" />
          </mxGeometry>
        </mxCell>
        <mxCell id="SzKWlTnyCkTZywt5P0EU-23" value="GPS coordinates from vehicles passing HWY gateways" style="edgeLabel;html=1;align=center;verticalAlign=middle;resizable=0;points=[];" vertex="1" connectable="0" parent="SzKWlTnyCkTZywt5P0EU-22">
          <mxGeometry x="0.0095" y="-1" relative="1" as="geometry">
            <mxPoint as="offset" />
          </mxGeometry>
        </mxCell>
      </root>
    </mxGraphModel>
  </diagram>
</mxfile>
